HIERARCHY
ROOT root
{
	OFFSET 0.000000 0.000000 0.000000
	CHANNELS 6 Xposition Yposition Zposition Zrotation Yrotation Xrotation
	JOINT lhip
	{
		OFFSET 0.058581 -0.082280 -0.017664
		CHANNELS 3 Zrotation Yrotation Xrotation
		JOINT lknee
		{
			OFFSET 0.043451 -0.386469 0.008037
			CHANNELS 3 Zrotation Yrotation Xrotation
			JOINT lankle
			{
				OFFSET -0.014790 -0.426874 -0.037428
				CHANNELS 3 Zrotation Yrotation Xrotation
				JOINT ltoe
				{
					OFFSET 0.041054 -0.060286 0.122042
					CHANNELS 3 Zrotation Yrotation Xrotation
					End Site
					{
						OFFSET 0.000000 0.000000 0.000000
					}
				}
			}
		}
	}
	JOINT rhip
	{
		OFFSET -0.060310 -0.090513 -0.013543
		CHANNELS 3 Zrotation Yrotation Xrotation
		JOINT rknee
		{
			OFFSET -0.043257 -0.383688 -0.004843
			CHANNELS 3 Zrotation Yrotation Xrotation
			JOINT rankle
			{
				OFFSET 0.019056 -0.420046 -0.034562
				CHANNELS 3 Zrotation Yrotation Xrotation
				JOINT rtoe
				{
					OFFSET -0.034840 -0.062106 0.130323
					CHANNELS 3 Zrotation Yrotation Xrotation
					End Site
					{
						OFFSET 0.000000 0.000000 0.000000
					}
				}
			}
		}
	}
	JOINT lowerback
	{
		OFFSET 0.004439 0.124404 -0.038385
		CHANNELS 3 Zrotation Yrotation Xrotation
		JOINT upperback
		{
			OFFSET 0.004488 0.137956 0.026820
			CHANNELS 3 Zrotation Yrotation Xrotation
			JOINT chest
			{
				OFFSET -0.002265 0.056032 0.002855
				CHANNELS 3 Zrotation Yrotation Xrotation
				JOINT lowerneck
				{
					OFFSET -0.013390 0.211636 -0.033468
					CHANNELS 3 Zrotation Yrotation Xrotation
					JOINT upperneck
					{
						OFFSET 0.010113 0.088937 0.050410
						CHANNELS 3 Zrotation Yrotation Xrotation
						End Site
						{
							OFFSET 0.000000 0.000000 0.000000
						}
					}
				}
				JOINT lclavicle
				{
					OFFSET 0.071702 0.114000 -0.018898
					CHANNELS 3 Zrotation Yrotation Xrotation
					JOINT lshoulder
					{
						OFFSET 0.122921 0.045205 -0.019046
						CHANNELS 3 Zrotation Yrotation Xrotation
						JOINT lelbow
						{
							OFFSET 0.255332 -0.015649 -0.022946
							CHANNELS 3 Zrotation Yrotation Xrotation
							JOINT lwrist
							{
								OFFSET 0.265709 0.012698 -0.007375
								CHANNELS 3 Zrotation Yrotation Xrotation
								End Site
								{
									OFFSET 0.000000 0.000000 0.000000
								}
							}
						}
					}
				}
				JOINT rclavicle
				{
					OFFSET -0.082954 0.112472 -0.023707
					CHANNELS 3 Zrotation Yrotation Xrotation
					JOINT rshoulder
					{
						OFFSET -0.113228 0.046853 -0.008472
						CHANNELS 3 Zrotation Yrotation Xrotation
						JOINT relbow
						{
							OFFSET -0.260127 -0.014369 -0.031269
							CHANNELS 3 Zrotation Yrotation Xrotation
							JOINT rwrist
							{
								OFFSET -0.269108 0.006794 -0.006027
								CHANNELS 3 Zrotation Yrotation Xrotation
								End Site
								{
									OFFSET 0.000000 0.000000 0.000000
								}
							}
						}
					}
				}
			}
		}
	}
}
MOTION
Frames: 7
Frame Time: 0.033333
0.351912 0.172340 0.994956 83.218315 0.919540 87.170593 7.818820 5.313764 6.274791 -3.426509 0.927048 -0.499137 0.998721 9.915792 -3.852043 0.000000 -0.000000 0.000000 -6.900754 -3.013301 -3.034476 1.815648 2.316092 7.577100 6.017484 -3.728961 -6.363405 0.000000 -0.000000 0.000000 -2.299286 2.287424 1.313587 2.750894 0.137685 2.786115 1.084055 0.527922 0.742907 1.306439 3.433847 -2.740301 1.954096 -1.630267 4.711966 -20.113121 -0.497885 1.361525 -63.625574 -13.280219 17.810164 -4.039686 -18.224411 22.632225 2.469618 -9.197462 -9.547463 24.793595 3.465029 7.217705 58.793187 9.921328 18.215734 -15.295731 18.415589 -6.110159 7.375546 7.706387 -0.975780 
0.353184 0.174566 0.994090 83.360211 -0.101098 86.877554 6.550243 5.261578 6.695419 -3.239087 0.688428 -0.657831 1.215968 10.126966 -3.882623 0.000000 -0.000000 0.000000 -8.226721 -3.014325 -2.512325 1.873812 2.506093 7.492697 6.112957 -3.982878 -6.429828 0.000000 -0.000000 0.000000 -3.169946 2.200681 1.385569 2.518252 0.160453 2.826698 1.060124 0.448755 1.188768 1.436707 3.381244 -3.140766 1.816231 -1.601793 5.032453 -19.726931 -0.529719 0.850827 -63.886856 -13.152367 18.010553 -3.812302 -18.056557 22.053394 1.365337 -9.355552 -8.448788 24.647480 3.657301 6.869758 59.306162 10.082414 18.725514 -15.986209 17.732294 -8.338191 9.522488 7.441439 1.159466 
0.353188 0.174299 0.994378 83.292597 -0.099205 87.089338 6.498743 5.060573 6.510109 -3.222000 1.006831 -0.724280 0.552109 9.993668 -4.184328 0.000000 -0.000000 0.000000 -8.187883 -2.519455 -2.752030 1.762605 1.965480 7.611415 6.708285 -4.052686 -6.786568 0.000000 -0.000000 0.000000 -3.256582 2.291388 1.629597 2.447456 0.153358 2.118271 1.256123 0.468101 1.428059 1.681381 3.842593 -3.374532 1.510235 -2.119850 5.354569 -19.806089 0.058305 1.311836 -63.509059 -14.370228 17.035776 -4.635363 -15.034659 20.634042 3.767042 -17.300215 -4.644496 24.195642 3.134735 7.084426 59.332161 10.030785 19.347765 -14.723829 18.517009 -6.221756 3.678779 9.561682 -1.807504 
0.353518 0.172825 0.995391 83.328219 0.015785 87.486222 6.636222 4.936114 6.109526 -3.360878 0.730439 -0.853023 0.666101 9.580238 -4.433544 0.000000 -0.000000 0.000000 -7.889733 -2.531372 -3.237519 1.651020 2.031912 7.804176 6.767827 -4.180025 -7.187791 0.000000 -0.000000 0.000000 -3.507976 2.396489 1.161218 2.485728 0.297776 2.147691 1.283175 0.638035 1.184338 1.928521 3.610276 -3.291173 1.787460 -2.334936 5.357565 -18.898139 0.481304 1.545506 -64.329068 -14.695978 17.886269 -4.625591 -14.831066 21.342574 4.232085 -17.406209 -5.077167 24.186136 2.418842 6.512398 59.633884 9.571913 20.625676 -15.039527 18.302453 -6.483507 4.851908 9.896905 -2.037764 
0.353569 0.172749 0.995569 83.324706 0.012986 87.465012 6.636346 4.955649 6.124088 -3.364901 0.702036 -0.847504 0.702926 9.590709 -4.442333 0.000000 -0.000000 0.000000 -7.885371 -2.515922 -3.207826 1.642422 2.043985 7.787638 6.745173 -4.175488 -7.195043 0.000000 -0.000000 0.000000 -3.500345 2.397136 1.185899 2.481790 0.309303 2.128518 1.268028 0.631831 1.161584 1.925028 3.607899 -3.245398 1.809691 -2.345496 5.356821 -18.839208 0.469936 1.560036 -64.374331 -14.638865 17.939398 -4.600236 -14.890831 21.503207 4.444539 -17.289975 -5.257767 24.129143 2.528638 6.560742 59.741203 9.424936 20.819725 -15.226875 18.477374 -6.623044 4.405469 9.890207 -2.168671 
0.353792 0.172643 0.995795 83.330362 -0.027155 87.479810 6.588739 4.949418 6.113139 -3.375985 0.655872 -0.884646 0.774762 9.600989 -4.410382 0.000000 -0.000000 0.000000 -7.925936 -2.577055 -3.225031 1.648665 2.113023 7.784363 6.722660 -4.158527 -7.134789 0.000000 -0.000000 0.000000 -3.545140 2.378719 1.016634 2.530985 0.328668 2.259600 1.244676 0.537020 1.241474 2.102874 3.621832 -3.194905 1.755320 -2.158114 5.169312 -18.912659 0.631362 1.300119 -64.369185 -14.536616 18.256732 -4.448005 -15.378888 21.694409 3.297057 -16.382878 -6.124647 24.171753 2.254048 6.305768 59.653993 9.731540 20.832822 -15.235586 18.094982 -6.698660 6.599657 9.402099 -1.638828 
0.353907 0.172625 0.996024 83.326112 -0.035070 87.435143 6.578931 4.959842 6.148873 -3.365969 0.638242 -0.868086 0.804339 9.608858 -4.413456 0.000000 -0.000000 0.000000 -7.932133 -2.535621 -3.151723 1.630992 2.086928 7.747218 6.710727 -4.194143 -7.098767 0.000000 -0.000000 0.000000 -3.515848 2.337602 1.135888 2.440270 0.393646 2.234436 1.256196 0.597477 1.097665 2.129588 3.428915 -3.121449 1.807617 -2.086261 5.217805 -18.757377 0.491958 1.333601 -64.454510 -14.403386 18.269633 -4.468336 -15.459385 21.558364 3.282754 -16.308775 -6.031631 23.839635 2.817488 6.617563 60.084222 9.476997 20.948237 -15.436842 17.770706 -7.721468 6.481893 9.605451 -1.436710 
